HIERARCHY
ROOT Hips
{
	OFFSET -14.64140 90.27770 -84.91600
	CHANNELS 6 Xposition Yposition Zposition Zrotation Xrotation Yrotation
	JOINT Spine
	{
		OFFSET 0.00000 13.20850 -1.60436
		CHANNELS 3 Zrotation Xrotation Yrotation
		JOINT Spine1
		{
			OFFSET 0.00000 8.61716 0.00000
			CHANNELS 3 Zrotation Xrotation Yrotation
			JOINT Spine2
			{
				OFFSET 0.00000 8.61717 0.00000
				CHANNELS 3 Zrotation Xrotation Yrotation
				JOINT Spine3
				{
					OFFSET 0.00000 8.61717 0.00000
					CHANNELS 3 Zrotation Xrotation Yrotation
					JOINT Neck
					{
						OFFSET 0.00000 11.07920 1.10792
						CHANNELS 3 Zrotation Xrotation Yrotation
						JOINT Neck1
						{
							OFFSET 0.00000 7.08032 0.00000
							CHANNELS 3 Zrotation Xrotation Yrotation
							JOINT Head
							{
								OFFSET 0.00000 7.08031 0.00000
								CHANNELS 3 Zrotation Xrotation Yrotation
								End site
								{
									OFFSET 0.00000 0.00000 0.00000
								}
							}
						}
					}
					JOINT RightShoulder
					{
						OFFSET -0.01000 7.91373 5.19711
						CHANNELS 3 Zrotation Xrotation Yrotation
						JOINT RightArm
						{
							OFFSET -18.41580 0.00000 0.00000
							CHANNELS 3 Zrotation Xrotation Yrotation
							JOINT RightForeArm
							{
								OFFSET -29.11090 0.00000 0.00000
								CHANNELS 3 Zrotation Xrotation Yrotation
								JOINT RightHand
								{
									OFFSET -24.65040 0.00000 0.00000
									CHANNELS 3 Zrotation Xrotation Yrotation
									JOINT RightHandThumb1
									{
										OFFSET -5.35114 -0.85590 3.97906
										CHANNELS 3 Zrotation Xrotation Yrotation
										JOINT RightHandThumb2
										{
											OFFSET -4.52789 0.00000 0.00000
											CHANNELS 3 Zrotation Xrotation Yrotation
											JOINT RightHandThumb3
											{
												OFFSET -2.46976 0.00000 0.00000
												CHANNELS 3 Zrotation Xrotation Yrotation
												End site
												{
													OFFSET 0.00000 0.00000 0.00000
												}
											}
										}
									}
									JOINT RightHandIndex1
									{
										OFFSET -14.26970 0.00000 2.88139
										CHANNELS 3 Zrotation Xrotation Yrotation
										JOINT RightHandIndex2
										{
											OFFSET -5.48836 0.00000 0.00000
											CHANNELS 3 Zrotation Xrotation Yrotation
											JOINT RightHandIndex3
											{
												OFFSET -3.01859 0.00000 0.00000
												CHANNELS 3 Zrotation Xrotation Yrotation
												End site
												{
													OFFSET 0.00000 0.00000 0.00000
												}
											}
										}
									}
									JOINT RightHandMiddle1
									{
										OFFSET -14.26970 0.00000 -0.09147
										CHANNELS 3 Zrotation Xrotation Yrotation
										JOINT RightHandMiddle2
										{
											OFFSET -6.17441 0.00000 0.00000
											CHANNELS 3 Zrotation Xrotation Yrotation
											JOINT RightHandMiddle3
											{
												OFFSET -3.56743 0.00000 0.00000
												CHANNELS 3 Zrotation Xrotation Yrotation
												End site
												{
													OFFSET 0.00000 0.00000 0.00000
												}
											}
										}
									}
									JOINT RightHandRing1
									{
										OFFSET -12.69180 0.00000 -3.06433
										CHANNELS 3 Zrotation Xrotation Yrotation
										JOINT RightHandRing2
										{
											OFFSET -5.62556 0.00000 0.00000
											CHANNELS 3 Zrotation Xrotation Yrotation
											JOINT RightHandRing3
											{
												OFFSET -3.56744 0.00000 0.00000
												CHANNELS 3 Zrotation Xrotation Yrotation
												End site
												{
													OFFSET 0.00000 0.00000 0.00000
												}
											}
										}
									}
									JOINT RightHandPinky1
									{
										OFFSET -11.11390 0.00000 -6.03719
										CHANNELS 3 Zrotation Xrotation Yrotation
										JOINT RightHandPinky2
										{
											OFFSET -4.52789 0.00000 0.00000
											CHANNELS 3 Zrotation Xrotation Yrotation
											JOINT RightHandPinky3
											{
												OFFSET -2.46976 0.00000 0.00000
												CHANNELS 3 Zrotation Xrotation Yrotation
												End site
												{
													OFFSET 0.00000 0.00000 0.00000
												}
											}
										}
									}
								}
							}
						}
					}
					JOINT LeftShoulder
					{
						OFFSET 0.01000 7.91373 5.19711
						CHANNELS 3 Zrotation Xrotation Yrotation
						JOINT LeftArm
						{
							OFFSET 18.41580 0.00000 0.00000
							CHANNELS 3 Zrotation Xrotation Yrotation
							JOINT LeftForeArm
							{
								OFFSET 29.11090 0.00000 0.00000
								CHANNELS 3 Zrotation Xrotation Yrotation
								JOINT LeftHand
								{
									OFFSET 24.65040 0.00000 0.00000
									CHANNELS 3 Zrotation Xrotation Yrotation
									JOINT LeftHandThumb1
									{
										OFFSET 5.35114 -0.85590 3.97906
										CHANNELS 3 Zrotation Xrotation Yrotation
										JOINT LeftHandThumb2
										{
											OFFSET 4.52789 0.00000 0.00000
											CHANNELS 3 Zrotation Xrotation Yrotation
											JOINT LeftHandThumb3
											{
												OFFSET 2.46977 0.00000 0.00000
												CHANNELS 3 Zrotation Xrotation Yrotation
												End site
												{
													OFFSET 0.00000 0.00000 0.00000
												}
											}
										}
									}
									JOINT LeftHandIndex1
									{
										OFFSET 14.26970 0.00000 2.88139
										CHANNELS 3 Zrotation Xrotation Yrotation
										JOINT LeftHandIndex2
										{
											OFFSET 5.48836 0.00000 0.00000
											CHANNELS 3 Zrotation Xrotation Yrotation
											JOINT LeftHandIndex3
											{
												OFFSET 3.01859 0.00000 0.00000
												CHANNELS 3 Zrotation Xrotation Yrotation
												End site
												{
													OFFSET 0.00000 0.00000 0.00000
												}
											}
										}
									}
									JOINT LeftHandMiddle1
									{
										OFFSET 14.26970 0.00000 -0.09147
										CHANNELS 3 Zrotation Xrotation Yrotation
										JOINT LeftHandMiddle2
										{
											OFFSET 6.17440 0.00000 0.00000
											CHANNELS 3 Zrotation Xrotation Yrotation
											JOINT LeftHandMiddle3
											{
												OFFSET 3.56744 0.00000 0.00000
												CHANNELS 3 Zrotation Xrotation Yrotation
												End site
												{
													OFFSET 0.00000 0.00000 0.00000
												}
											}
										}
									}
									JOINT LeftHandRing1
									{
										OFFSET 12.69180 0.00000 -3.06433
										CHANNELS 3 Zrotation Xrotation Yrotation
										JOINT LeftHandRing2
										{
											OFFSET 5.62556 0.00000 0.00000
											CHANNELS 3 Zrotation Xrotation Yrotation
											JOINT LeftHandRing3
											{
												OFFSET 3.56744 0.00000 0.00000
												CHANNELS 3 Zrotation Xrotation Yrotation
												End site
												{
													OFFSET 0.00000 0.00000 0.00000
												}
											}
										}
									}
									JOINT LeftHandPinky1
									{
										OFFSET 11.11390 0.00000 -6.03719
										CHANNELS 3 Zrotation Xrotation Yrotation
										JOINT LeftHandPinky2
										{
											OFFSET 4.52789 0.00000 0.00000
											CHANNELS 3 Zrotation Xrotation Yrotation
											JOINT LeftHandPinky3
											{
												OFFSET 2.46976 0.00000 0.00000
												CHANNELS 3 Zrotation Xrotation Yrotation
												End site
												{
													OFFSET 0.00000 0.00000 0.00000
												}
											}
										}
									}
								}
							}
						}
					}
					JOINT pCube4
					{
						OFFSET 0.00000 10.91090 1.10792
						CHANNELS 3 Zrotation Xrotation Yrotation
						End site
						{
							OFFSET 0.00000 0.00000 0.00000
						}
					}
				}
			}
		}
	}
	JOINT RightUpLeg
	{
		OFFSET -9.98441 0.00000 0.00000
		CHANNELS 3 Zrotation Xrotation Yrotation
		JOINT RightLeg
		{
			OFFSET 0.00000 -42.11790 0.00000
			CHANNELS 3 Zrotation Xrotation Yrotation
			JOINT RightFoot
			{
				OFFSET 0.00000 -45.00020 -0.00001
				CHANNELS 3 Zrotation Xrotation Yrotation
				JOINT RightForeFoot
				{
					OFFSET 0.00000 -3.74820 0.00000
					CHANNELS 3 Zrotation Xrotation Yrotation
					JOINT RightToeBase
					{
						OFFSET 0.00000 0.06325 14.43120
						CHANNELS 3 Zrotation Xrotation Yrotation
						End site
						{
							OFFSET 0.00000 0.00000 0.00000
						}
					}
				}
			}
		}
	}
	JOINT LeftUpLeg
	{
		OFFSET 9.98441 0.00000 0.00000
		CHANNELS 3 Zrotation Xrotation Yrotation
		JOINT LeftLeg
		{
			OFFSET 0.00000 -42.11800 0.00000
			CHANNELS 3 Zrotation Xrotation Yrotation
			JOINT LeftFoot
			{
				OFFSET 0.00000 -45.00070 0.00000
				CHANNELS 3 Zrotation Xrotation Yrotation
				JOINT LeftForeFoot
				{
					OFFSET 0.00000 -3.74824 0.00000
					CHANNELS 3 Zrotation Xrotation Yrotation
					JOINT LeftToeBase
					{
						OFFSET 0.00000 0.06325 14.43110
						CHANNELS 3 Zrotation Xrotation Yrotation
						End site
						{
							OFFSET 0.00000 0.00000 0.00000
						}
					}
				}
			}
		}
	}
}
MOTION
Frames: 4
Frame Time: 0.050000
0.0013935830885619385 0.03173594727076815 0.03353730650228567 -0.01452079188968904 0.03487165814847024 -0.009825157678902316 5.098822735457393 6.620514184307391 -1.8421933042832823 -0.9909837075306779 4.140956661775949 0.4295765584166721 -0.6784658819213301 -0.5264313459941662 1.0528164328129985 -0.04705187997860628 0.11402486625363883 -0.23746004316464622 -0.4431946975309888 14.066562041319674 -1.431234118260307 -0.3863890079051885 -1.772060806586409 -4.049859715224842 0.2630596068312864 -19.654733725175088 -0.38297753869726275 -12.71070264059765 4.017039629341934 -17.43971636081941 77.34020924045065 -6.572594153748846 15.269218675293093 10.193569089583697 -5.062285191502326 70.65059553258325 2.1103496227161966 0.14228850960298317 0.047438205867787395 4.572584764276506 -0.15930310344300685 -1.6202244677241329 0.015388922339913477 -0.017860526075398737 -56.28392150256349 -0.011121555040935243 -0.033007921785452095 -56.201824190549665 -38.809856047183146 0.005800180776971807 0.021322547952284325 -0.011330072229131002 0.015668324554013978 -0.010882660690111415 -0.042018131510620574 0.02415760251683521 -0.03359959771181192 -36.727039738890795 0.04642386365200233 -0.04887624992681883 0.019001212834277928 -0.04267071385333922 0.04581504280118269 -0.016426548216911564 0.04004700646975519 -0.024157529897141875 -19.760162218628327 -0.013677686846894722 0.002737715405542529 -0.02361533244873955 -0.021900795694679155 -0.03580640220900599 0.02880188279748073 0.0052176729579579435 -0.01941511510227445 24.049040767182014 0.01674305744497178 -1.4160525570512399e-05 28.90309163051552 -0.022209066782536785 0.019876293637781043 28.866895530910227 -0.013315923807661889 -0.009375672862771392 12.098357606207655 2.64195756318193 14.896724444935915 -71.90185417601431 7.617542300261576 -20.782895641395417 -3.9382102874672813 -7.358149762634421 -61.9347073709611 -4.520460395086121 2.4149053636665614 -3.5893877176496356 -0.43326499961907194 0.027505224390135467 -8.153353319270325 0.034757264999201495 0.009645989928796197 44.56504878377749 -0.04155442331500331 -0.01875900384805575 44.5881684753274 12.429055002672873 -0.01771441256246866 -0.0031622382688829853 0.01423879966141617 0.00306029367362124 0.043423072774678356 -0.021914847900567885 0.006832081941294109 0.0419243200392695 11.109123308478557 0.02938726925224895 -0.018496679006429043 -0.0348096562063707 -0.008928823931471036 0.04539265803302249 0.0038345900388101284 -0.017433364664896853 0.02235260650854737 4.733016094427296 0.006003172954190219 0.041992871271029124 0.022612688768369697 -0.030405679488699617 -0.0012591386888663005 -0.004761410211874844 -0.01903992063595217 -0.005009080060886353 -5.619012010638766 -0.013164530911875775 0.015094710857244589 -6.758776984196402 0.03186763206109881 0.04647107589738658 -6.691957302471311 -0.001085349834385445 0.006137282912230821 -0.0415305715838904 0.04412705647747127 -0.036867274196733975 8.07953091578022 3.467625491409533 -19.239245127481805 0.0006943253972669891 10.404893763371668 -0.03401464729753016 -5.618250340401349 -15.66864737553002 3.2074333280713727 -0.036539433436564496 -0.008689849683489065 0.0064736145848156325 -0.0147122376643357 4.672119446553964 -0.029099597586912624 12.452846189329517 -8.283537539597337 6.880617287650153 0.003759819135144949 46.38561712643054 0.03133568187770661 -4.297289370237631 -14.704841043533243 -3.798310773491425 0.014034994216341612 -0.02632994936084797 0.026194455675306795 0.04651886789864189 -10.765169419820053 -0.03174505473158324 
0.03144286302973741 0.022315668904493543 -0.037164411623430586 -0.029346412280410634 0.0475572508505356 0.013949969849206068 5.089846626714192 6.643175980142608 -1.8578448325988715 -1.0661607125154993 4.190500083659414 0.4399194109540326 -0.6257848830736183 -0.5002713037166492 0.9915913916394585 0.014821018424828206 0.06707986507929391 -0.2940956294733304 -0.36583566951550694 14.099556302583919 -1.4692321871254908 -0.3619979616654321 -1.789583018315404 -4.3793172479151306 0.3215693742549309 -19.626185826421864 -0.34235655033626117 -12.459006441348276 3.8238519468754406 -17.54216652996906 76.00743637090962 -5.4021978416757 14.784353904067308 11.683494177285764 -4.911157102045283 71.65607805718918 2.7766418187985007 0.08747173678299953 -0.10225678143514069 4.576085848070017 -0.12708185509765535 -1.5663859000088032 0.02769096567669521 0.04647581569277035 -56.21926406895942 0.021289977439375034 -0.035599156016322984 -56.20234807435975 -38.79394152008483 0.01708786973899727 0.017623478059444187 0.03437827132458925 0.013903656930786991 -0.01363275017948149 -0.02652814416826016 0.02677304440771691 -0.026578482798205533 -36.71296402479231 -0.027824213378522596 0.01722961781075595 0.018025196826172013 -0.013026682472045052 0.020176985262889125 -0.01758988005836714 0.011498162162801227 0.04399557200861687 -19.778389387646996 -0.016096077493684 -0.015609706450211435 -0.02130371528288217 0.0026678903563561317 -0.015173463174433915 -0.035752615530760326 -0.01190645479771915 -0.043345330539107316 24.055147927818787 -0.009169702062064678 0.014431142099224352 28.88546608177153 -0.011055628309479438 0.048808244503879536 28.894128255984786 0.005422639003053397 -0.04259527487841733 11.92045075634814 2.5183818210871944 14.95777869013551 -71.11835552144512 7.914000113703252 -20.217457690268045 -5.086966488165605 -7.10422816816718 -63.00772647954847 -5.157069013451793 2.1857549805236607 -3.452916650920484 -0.5053689309754684 0.020374359249661057 -8.161724973110205 0.002767860221505755 0.030000648684995367 44.552003424955736 -0.045544100390093135 0.049299654885032414 44.59572152548989 12.465304861011322 0.03685603211154894 0.00030891800579732414 -0.020447340798944825 -0.007271709172440667 0.027212064345129582 0.03559195372519968 0.0025947886917769667 0.042034126045847775 11.102030578668098 0.04953275951713688 -0.03641347931185736 -0.04168699903069578 0.019188288029010667 0.01836356968283256 -0.0486549983574661 0.024035991933226385 -0.008551747713498845 4.819082964845077 0.03339815696393335 0.041239340041899435 -0.03723828102366797 0.033031621822770606 -0.024152765263089994 -0.01173412042572889 0.026453116367220943 0.0023738976060709966 -5.601073520074951 0.033318342804768954 -0.0024934461059342235 -6.733714991132416 0.04404259175835684 -0.04569512048036685 -6.749187040549212 0.02837603243847295 -0.021422602130010106 0.02210651368101521 -0.04192546409273057 -0.008451741246301629 8.007915876169315 3.458727186124634 -19.170286310523583 -0.0166640256326517 10.379912698531609 0.016969194161357278 -5.620326983123147 -15.61983071057124 3.1751680190922094 0.03533864564419597 0.041459704353249964 -0.00970750285959714 0.004086954011527593 4.6607297927401925 -0.028252818024873762 12.41205621243129 -8.251458346502055 6.888574579636723 -0.018093865268659113 46.40278909730171 -0.004543322712265499 -4.329158012134617 -14.744396383056342 -3.866111501920402 0.03736355706052673 -0.007324616394799518 -0.0310994404710235 -0.011953173312883262 -10.794534737869245 0.01572386766754879 
0.035688825028599915 -0.022222504686390827 -0.004152286709482695 0.0329342670827482 0.030174123504922636 0.010479659369783144 5.110685714819506 6.758734770233626 -1.852905794515884 -1.0211472077725778 4.2536197844811445 0.41785875445539394 -0.6700449992804121 -0.4536113767614123 1.0645131378940462 0.21027897434928577 0.13946643416497495 -0.26983827175312913 -0.36298950615235204 14.058006055545924 -1.8337138072365728 -0.42235146002699453 -1.8607313159363859 -5.058249586455186 0.38273866784404986 -19.714110398970064 -0.45890851601634847 -12.27280373258808 3.74170828063333 -17.67260139322994 74.89224468741176 -4.084320829145224 14.709783884103947 12.455690937315262 -5.265830974885976 72.14011865829475 3.2666018962175594 0.09368918971744546 -0.24548890517609956 4.527623717808098 -0.10303695079380952 -1.5847887955746633 0.03835751622052605 -0.0047520172074899565 -56.25051843964703 0.04700001645344353 -0.03292390323895533 -56.22347951812013 -38.768546878126905 -0.048260056155060786 0.03824185918709798 0.029061042796295122 0.013952050963934688 0.0098728011852335 -0.03487248947328948 -0.0228797599533368 0.03763813533855309 -36.73124707959983 0.0264662851665897 0.04195151510666771 -0.01749664251327956 0.028123948757542264 0.007026019755425152 -0.03862165451858583 -0.013871934981714464 0.019512910483885933 -19.768260475707155 0.005132398963914362 -0.028370982501416623 -0.027941048842092905 0.000995245808306879 -0.01798572206891023 0.014613211767890868 -0.004963097905376675 -0.022493174928057105 24.095373727736252 -0.045385610579415314 0.01011376140234021 28.859616615832053 -0.009479814034250076 -0.020196933092805878 28.86936552688356 0.005113586209406361 0.04931466898317941 11.59829112080658 2.4859966847826875 15.068630215528403 -70.50856362736874 7.997966409582872 -19.60060077757769 -6.227171044753556 -7.651131609660372 -63.480444654272084 -5.759410969097891 1.9182458909554472 -3.166412390434974 -0.5046627106048992 0.08886359569675747 -8.095832879619323 -0.030079477576533273 0.043452004959855815 44.578872468953875 -0.024867295557900126 0.04726057036179795 44.579150593950594 12.46222341336498 -0.010362485080803509 0.027415578235836187 -0.018411762151900074 -0.03055672324098477 -0.013389964775509562 0.012900800814390425 0.005060567150938419 -0.006019329713203591 11.11535611439751 -0.015063504832031583 -0.02993417618191937 0.01361916233776744 -0.008241268470044567 0.00723202696692413 0.014440853474999668 -0.03483424822745738 -0.00455216972993147 4.742670594744251 -0.004022162192853222 0.026880206823545257 -6.909635405556926e-05 -0.019908627126893993 0.028916921259377237 -0.01834477850994743 -0.048857162727752215 0.025120311837072033 -5.5717037240567 -0.02325723543767142 -0.006911991780809441 -6.681859882501476 -0.019029941756529525 -0.04265482286859748 -6.707077622583557 0.02361240327810211 -0.04661878266768878 -0.031142499898004102 -0.03296201185214309 -0.03782445719563486 8.020807254678127 3.54174573645853 -19.220742214098962 -0.03223265710176114 10.428886867264165 0.012016907006992721 -5.6088724235550425 -15.639192098545157 3.2391900318708533 0.01663372065693346 -0.041616858271186365 -0.03161348301896995 -0.01708483623302118 4.726239950408505 -0.04270925308275685 12.495983398599046 -8.19731302887788 6.909590966640668 -0.0452381649968831 46.3554623439123 -0.01925341757911743 -4.284010583035675 -14.788742082807445 -3.789699669557421 -0.03042094111058824 0.010852708231785952 -0.0018882433714371425 0.010586507881275117 -10.765815591301182 -0.029180138695726377 
-0.04035394107839634 -0.01871849011394767 0.009625205354895194 -0.0379846235526156 -0.03953724462690469 0.0364580775938795 5.133630245515622 6.772501777856062 -1.880873440578195 -1.0170274565358224 4.273658613906459 0.4528695443959761 -0.6199221792297376 -0.4320857967960022 1.1315865633247633 0.30500022550899636 0.15707650663523712 -0.26376930656895403 -0.2216694268926331 14.003495739171003 -2.2077765655129333 -0.423013298384302 -1.916606274096271 -6.190931204347098 0.4163230089915939 -19.62161382914348 -0.4735708968151568 -12.081442354400245 3.6931930893452716 -17.75555413933925 73.90687320667871 -3.3977992056588926 14.45421625089165 12.544163987046481 -6.170105459033067 72.1959482090683 3.9054113628080898 0.036152972189721175 -0.5338180944335077 4.554598555528647 -0.15676983116104734 -1.5873335414150318 0.02456123773434784 -0.015052210375192245 -56.265458303715654 -0.028572094341790227 0.000752802821335914 -56.278479050940184 -38.73323600062081 0.01791932279242951 0.003982230858935812 0.0256478662652338 0.037332721584504555 0.03825140513507695 0.006767589070828026 -0.03014127633011077 0.03323216545110783 -36.68638633474078 -0.02306624447997184 0.005847939490691732 -0.018309889595767688 0.04186061414436881 0.0470942713359298 -0.040389820958576995 -0.03595606806764535 -0.020618566579753087 -19.734364683854967 -0.0017725758034818787 -0.00799560207964303 0.03792936591736392 0.017525361912492852 -0.012012614310782151 -0.048010510661740134 -0.006664966348448496 0.005436107674375691 24.03797129353203 0.04100583913340734 0.02594558735159201 28.86005276022223 0.017728425656169593 -0.0010721885778334393 28.878137080091445 -0.004822387355509909 -0.00029463905929063124 11.210610630153386 2.4107645174351746 15.180196343857187 -70.27050208309235 7.707878193858659 -18.530810402944617 -7.3413678731795935 -8.940254301255496 -63.411427367577396 -6.582035572467339 1.464256801014787 -2.7334008423299343 -0.4853991013569874 0.08552101821205971 -8.110411965832213 -0.014830467410263155 -0.012052317227366114 44.568951605008024 -0.03716002138304338 0.017075567544842397 44.6002673893617 12.499987706631748 0.04523836643162055 -0.025051747880149446 -0.01042694811154822 -0.033368815805355626 0.0318635819133195 0.03500851613034182 0.018277576554085958 0.0075620592142155935 11.130489365705156 0.010065178418862829 0.017723504480250306 0.02675634587639401 -0.02200008671123198 -0.046880123787171504 -0.02622734513780985 0.010726533123230067 -0.034228746690795786 4.750136623719002 -0.045920344473233225 -0.045183683371579124 0.03698111370915661 -0.006178142482007627 0.00486726768519883 -0.0451537154015642 -0.002413424893837919 -0.014765349186268286 -5.5978968109215215 0.0251639571513999 -0.023050150212433132 -6.7055949418671 0.01947517005506275 0.032544473330594195 -6.711054883215387 -0.0031645435443318328 -0.03189837583302243 -0.044965042983492895 0.038495075961230016 -0.000692337055799557 8.054193876551386 3.46786251783594 -19.212349941347483 0.04829644040265587 10.370212025910746 0.021063219644967872 -5.6277720973011105 -15.67390241680472 3.1760828912158003 -0.026990945420478803 -0.03752306099869466 -0.048670427672732906 0.01545541776639335 4.65028301881952 0.00936288498361366 12.429208285139197 -8.234191163870078 6.880873561313552 0.0437422153527816 46.42727654790742 0.009302017345053395 -4.285800006772438 -14.754076702995189 -3.8306136470147885 -0.006784937606600692 0.0021669015802052815 0.04062710586461463 -0.027872419663825337 -10.725334239786394 0.043490201233954424 
